<svg width="121" height="126" viewBox="0 0 121 126" fill="none" xmlns="http://www.w3.org/2000/svg">
<path d="M20.7136 74.6567L11.808 75.7553L3.66852 81.4399L2.06494 88.8623L4.61596 97.7169L10.4889 103.857L22.529 104.508L28.0332 103.421L24.5955 94.0039L15.3467 94.1607L10.4389 91.2853L13.3381 84.9272L18.8422 83.8403C22.272 82.0382 20.7136 74.6567 20.7136 74.6567Z" fill="#C3A36C"/>
<path d="M22.0925 62.2695L21.4128 79.6831L28.0351 103.422L43.3265 117.954L60.0096 123.242L78.4405 123.369L95.0873 119.227L107.634 110.07L115.537 96.2782L118.889 83.6953L118.574 72.8845L117.029 60.5689L105.502 69.4081L94.2282 73.3432L84.0388 76.5195L59.7585 76.5385L48.1951 75.9484L31.7885 72.0423L22.0925 62.2695Z" fill="#DCDCDC"/>
<path d="M26.355 56.535L44.2857 50.3147L77.1272 48.256L104.41 50.8676L116.064 57.3037L117.029 60.5689L105.502 69.408L95.4875 64.978L74.1859 61.3412L60.7442 62.8115L53.4511 63.6101L38.8424 67.1164L36.1295 69.011L31.7886 72.0423L22.4486 66.3541L22.0925 62.2694L26.355 56.535Z" fill="#DCDCDC"/>
<path d="M84.0388 76.5195L65.2637 75.4507L43.0882 74.3938L36.1305 69.011L46.9289 65.0152L74.1869 61.3412L95.4885 64.979L105.503 69.4081C98.8467 71.6933 84.0388 76.5195 84.0388 76.5195Z" fill="#6E4D48"/>
<g opacity="0.2">
<path d="M64.1289 107.167C63.7081 109.964 60.9139 111.914 57.8891 111.525C54.8644 111.137 52.7528 108.554 53.1735 105.758C53.5943 102.962 56.3885 101.011 59.4133 101.4C62.439 101.789 64.5506 104.371 64.1289 107.167Z" fill="black"/>
<path d="M93.98 105.621C93.5592 108.418 90.765 110.369 87.7402 109.98C84.7145 109.591 82.6039 107.008 83.0246 104.213C83.4454 101.416 86.2396 99.4655 89.2644 99.8544C92.2901 100.243 94.4007 102.826 93.98 105.621Z" fill="black"/>
</g>
<path opacity="0.2" d="M43.0882 74.3937C43.0882 74.3937 36.4925 118.197 78.4416 123.369L63.3444 123.67L49.1877 120.952L31.0383 106.052L24.5985 94.0047L20.7146 74.6566L22.4506 66.3531L31.7906 72.0423L43.0882 74.3937Z" fill="black"/>
<path opacity="0.2" d="M67.1861 62.6846C67.1861 62.6846 82.1901 64.6145 81.8311 68.6076C81.4732 72.6007 65.8718 74.6321 65.8718 74.6321L92.3216 73.0983L100.95 70.6182L99.7736 65.5309L84.2537 62.1887L67.1861 62.6846Z" fill="black"/>
<path opacity="0.2" d="M77.5176 62.2922C77.5176 62.2922 95.0324 61.5543 90.3256 49.2804C89.0271 45.8947 105.708 51.3572 105.708 51.3572L116.551 56.7408L114.761 62.8932L108.096 67.0222L101.81 67.2108L88.1316 63.457L77.5176 62.2922Z" fill="black"/>
<path d="M20.7136 74.6567L22.4447 82.5087L15.3781 84.2927L11.7904 88.7671L13.443 93.9159L19.159 94.6511L24.5975 94.0048L27.89 101.16L17.833 103.456L9.04815 100.531L3.79704 96.7143L2.39746 86.6613L3.25859 80.9386L10.789 76.0726L20.7136 74.6567Z" fill="#DCDCDC"/>
<path d="M102.636 104.267C102.309 104.254 101.978 104.179 101.665 104.036C100.477 103.489 99.9923 102.155 100.584 101.056C106.83 89.4578 105.662 77.0769 105.649 76.9528C105.526 75.7317 106.496 74.6476 107.817 74.5315C109.138 74.4182 110.311 75.3102 110.438 76.5303C110.495 77.0851 111.769 90.2636 104.889 103.036C104.454 103.846 103.554 104.302 102.636 104.267Z" fill="white"/>
<path d="M79.8108 101.2C79.8108 101.2 79.3018 106.482 73.4877 106.723C67.9061 106.954 66.5349 101.655 66.5349 101.655L79.8108 101.2Z" fill="black"/>
<path d="M63.7357 93.624C63.0855 97.9425 58.77 100.957 54.0976 100.356C49.4251 99.7546 46.164 95.766 46.8143 91.4475C47.4645 87.129 51.78 84.1149 56.4524 84.7159C61.1249 85.316 64.386 89.3046 63.7357 93.624Z" fill="black"/>
<path d="M52.495 95.3237C54.5311 95.3237 56.1818 93.7981 56.1818 91.9162C56.1818 90.0343 54.5311 88.5087 52.495 88.5087C50.4588 88.5087 48.8082 90.0343 48.8082 91.9162C48.8082 93.7981 50.4588 95.3237 52.495 95.3237Z" fill="white"/>
<path d="M60.9777 96.2981C60.8012 97.4729 59.6272 98.2923 58.3571 98.1283C57.086 97.9651 56.1993 96.88 56.3769 95.7061C56.5534 94.5313 57.7274 93.7118 58.9975 93.8759C60.2676 94.0391 61.1543 95.1232 60.9777 96.2981Z" fill="white"/>
<path d="M96.5508 91.1892C95.9006 95.5077 91.5851 98.5218 86.9127 97.9208C82.2392 97.3198 78.9791 93.3312 79.6293 89.0127C80.2796 84.6942 84.5951 81.6801 89.2675 82.2811C93.94 82.8821 97.2011 86.8707 96.5508 91.1892Z" fill="black"/>
<path d="M88.9625 89.9518C88.682 91.8156 86.8195 93.1173 84.802 92.8571C82.7855 92.5979 81.3771 90.8764 81.6586 89.0118C81.9391 87.1481 83.8016 85.8463 85.8191 86.1065C87.8356 86.3658 89.243 88.0872 88.9625 89.9518Z" fill="white"/>
<path d="M93.7939 93.8642C93.6173 95.039 92.4433 95.8584 91.1732 95.6944C89.9031 95.5312 89.0155 94.4461 89.193 93.2722C89.3696 92.0974 90.5435 91.2779 91.8137 91.442C93.0838 91.6052 93.9704 92.6893 93.7939 93.8642Z" fill="white"/>
<path d="M119.542 57.2203L119.485 56.9556L119.362 56.7118C118.786 55.5768 112.732 46.0252 72.7256 46.2536C72.1126 45.2438 71.3377 44.2539 70.3668 43.3012C67.4744 40.4639 66.7634 37.3365 68.1934 33.7395C69.3487 30.8324 71.5153 28.752 71.5368 28.7312L68.1031 25.6183C67.9884 25.7262 65.2794 28.2979 63.7426 32.0498C61.5946 37.293 62.6745 42.2379 66.8673 46.3488L66.8693 46.3506C63.6072 46.4412 60.503 46.5954 57.5587 46.8111C57.4185 46.6606 57.2772 46.5111 57.138 46.3633C54.9547 44.0481 53.2305 42.2188 53.4875 37.7507C53.8268 31.8495 56.1385 29.4972 58.5866 27.0061C60.7865 24.768 63.2787 22.2307 63.9985 17.4526C65.5286 7.29271 57.1625 0.292796 56.8055 0L53.612 3.32319C53.6797 3.37939 60.4148 9.0096 59.2359 16.8399C58.7209 20.2591 57.0909 21.918 55.0273 24.0183C52.2566 26.8375 49.1171 30.0338 48.6865 37.5151C48.4139 42.2487 49.989 45.1477 51.7721 47.3387C40.2498 48.6105 31.6013 50.9918 25.9706 54.4591C19.8868 58.2066 19.314 62.0882 19.2679 63.03C19.212 63.6092 18.91 67.072 19.1032 72.1148C16.201 72.4974 7.92714 74.0484 3.25567 79.6505C0.36824 83.1124 -0.604698 87.4127 0.361374 92.432C1.28821 97.2454 3.76764 100.822 7.73098 103.065C10.0515 104.378 12.6496 105.085 15.2153 105.415C20.4429 106.087 25.5312 105.195 27.8498 104.68C32.6537 112.641 39.3161 118.525 47.6165 122.025C51.6171 123.712 56.0277 124.867 60.7982 125.48C63.5876 125.839 66.5015 126.013 69.5262 125.999C76.7036 125.968 83.2582 125.063 89.0066 123.31C106.288 118.038 117.04 104.849 120.099 85.1674C122.364 70.5974 119.658 57.7597 119.542 57.2203ZM74.4262 50.6927C104.708 50.7271 112.939 56.5885 114.664 58.2546C114.268 59.6597 112.52 63.36 104.887 66.7747C102.558 64.5357 95.2483 60.4112 73.061 60.3713C74.2752 57.6482 75.0804 54.199 74.4262 50.6927ZM67.4735 50.7815C68.1728 50.7634 68.8593 50.7489 69.538 50.7371C70.6551 54.7547 68.7426 58.6734 67.6735 60.4374C67.3362 60.4456 67.0007 60.4538 66.6574 60.4646C64.7008 60.5236 62.8491 60.6296 61.0925 60.7737C62.1507 56.3519 61.7163 53.3541 60.6492 51.0653C62.7971 50.9402 65.0666 50.8432 67.4735 50.7815ZM66.8144 64.9064C87.6757 64.281 96.334 67.004 99.6804 68.7309C92.9071 70.8757 83.0983 72.6651 68.8878 73.3232C55.3392 73.9514 45.8099 72.898 39.1317 71.2346C43.203 68.7708 51.524 65.3651 66.8144 64.9064ZM55.3853 51.4469C56.8918 53.53 57.5832 56.1026 55.9846 61.3349C43.0078 63.1469 36.4532 67.1908 33.6413 69.5177C27.0505 66.9587 24.778 63.9256 24.1542 62.8677C24.6917 61.1663 28.556 53.8291 55.3853 51.4469ZM21.0029 87.0692C21.3943 88.8196 21.8454 90.5138 22.3476 92.1582C20.6391 92.5525 18.2116 92.8644 16.7159 92.1446C16.2805 91.9352 15.6665 91.5255 15.3674 90.396C15.0447 89.1795 15.1741 88.1996 15.7656 87.401C16.8042 85.9977 19.0904 85.2417 20.5557 84.9226C20.693 85.6315 20.8411 86.3467 21.0029 87.0692ZM10.2408 99.2742C7.46323 97.7023 5.7802 95.2104 5.09562 91.6542C4.36788 87.8741 5.00735 84.841 7.0513 82.3799C10.436 78.3062 16.7983 76.9645 19.3866 76.5757C19.4994 77.8366 19.6446 79.1537 19.8309 80.5162C17.9125 80.8878 13.9717 81.9747 11.813 84.87C10.4311 86.7229 10.0456 89 10.6969 91.4548C11.2569 93.5624 12.5751 95.1669 14.5092 96.0933C15.4242 96.5311 16.4119 96.7877 17.4103 96.9155C19.774 97.2191 22.1917 96.8076 23.8139 96.406C24.3719 97.8464 24.9771 99.2379 25.6273 100.581C22.1632 101.237 15.1545 102.055 10.2408 99.2742ZM115.339 84.5355C112.516 102.69 103.149 114.316 87.4991 119.089C82.2303 120.696 76.176 121.526 69.5037 121.555C62.0066 121.587 55.3137 120.385 49.6124 117.981C37.3467 112.81 29.3141 102.142 25.7372 86.276C24.2591 79.7212 23.8894 73.5815 23.8609 69.3111C25.0016 70.2067 26.4198 71.1367 28.1813 72.0405C32.9038 74.4654 38.9228 76.1487 46.1855 77.0824C52.8127 77.9345 60.4746 78.1638 69.13 77.7623C89.8353 76.8032 104.538 73.3567 112.83 67.5198C114.017 66.6841 114.992 65.8519 115.8 65.0433C116.264 69.9955 116.499 77.0706 115.339 84.5355Z" fill="black"/>
</svg>
