<svg width="200" height="288" viewBox="0 0 200 288" fill="none" xmlns="http://www.w3.org/2000/svg">
<path d="M22.3429 45.0333L27.77 14.8406L43.3331 4.6728L75.5306 3.40698L150.105 6.25967L166.398 11.9483L173.371 32.3194L173.675 50.1735L22.3429 45.0333Z" fill="#DEDEDE"/>
<path d="M6.48226 61.4136L22.3429 45.0337L71.177 52.67L188.969 52.5032L194.203 74.5842C188.774 80.7108 5.80078 79.0488 5.80078 79.0488L6.48226 61.4136Z" fill="#fdba74"/>
<path d="M19.6992 86.3013L51.1619 276.349L66.257 282.82L136.555 281.59L145.447 268.905L154.972 205.087L179.067 82.7543L123.905 75.8145L21.1956 79.3073L19.6992 86.3013Z" fill="#DEDEDE"/>
<g opacity="0.4">
<path d="M72.889 164.301C71.5322 170.646 65.3681 174.673 59.122 173.294C52.8758 171.916 48.9122 165.654 50.269 159.308C51.6258 152.963 57.7898 148.934 64.036 150.313C70.2801 151.693 74.2457 157.955 72.889 164.301Z" fill="#FC6D1D"/>
<path d="M150.285 163.592C148.929 169.937 142.765 173.966 136.518 172.588C130.272 171.209 126.309 164.947 127.665 158.602C129.022 152.256 135.186 148.23 141.432 149.608C147.679 150.986 151.642 157.246 150.285 163.592Z" fill="#FC6D1D"/>
</g>
<path opacity="0.2" d="M128.593 224.901C125.336 256.737 101.312 279.164 67.8088 281.713C34.3058 284.261 120.736 283.331 120.736 283.331L139.507 282.242L148.27 265.343L156.983 214.95L181.461 81.1923L144.323 76.6589C144.323 76.6589 131.719 194.354 128.593 224.901Z" fill="black"/>
<path opacity="0.2" d="M141.317 76.8005C141.317 76.8005 156.295 66.153 145.197 50.626L181.97 49.9128L192.491 58.5126L194.975 75.8016C188.776 80.7124 167.694 78.1517 167.694 78.1517L141.317 76.8005Z" fill="black"/>
<path opacity="0.2" d="M142.801 48.1779C142.801 48.1779 165.584 25.1272 144.546 8.17184C130.299 -3.31179 162.121 7.8653 162.121 7.8653L173.54 21.8951L181.968 49.9129L142.801 48.1779Z" fill="black"/>
<path d="M45.398 28.093C43.1258 27.5904 41.4283 25.5301 41.4385 23.0737C41.4508 20.2502 43.7149 17.9711 46.4941 17.9857L91.2784 18.1983C94.0556 18.2129 96.3012 20.5109 96.2868 23.3343C96.2725 26.1578 94.0104 28.437 91.2312 28.4224L46.4469 28.2098C46.0857 28.2077 45.7347 28.168 45.398 28.093Z" fill="white"/>
<path d="M53.9991 123.802C55.5302 130.132 62.2573 141.682 76.7596 140.088C91.7173 138.444 94.1945 124.039 93.4157 116.653L83.4014 117.664C83.4046 117.697 83.6999 120.984 82.6514 124.195C81.4872 127.754 79.3217 129.52 75.6288 129.927C66.6987 130.909 64.1834 122.973 63.7775 121.411L53.9991 123.802Z" fill="black"/>
<path d="M127.513 139.165C142.502 140.491 147.761 126.854 148.448 119.456L138.431 118.481C138.427 118.514 138.071 121.795 136.41 124.738C134.569 127.998 132.099 129.307 128.398 128.977C119.443 128.182 118.542 119.911 118.451 118.3L108.393 118.723C108.653 125.233 112.98 137.883 127.513 139.165Z" fill="black"/>
<path d="M94.9825 171.864C96.689 168.528 99.1033 167.119 102.817 167.289C111.783 167.704 113.034 175.929 113.189 177.534L123.222 176.685C122.766 171.015 119.017 160.794 108.357 157.854C106.816 157.429 105.129 157.156 103.287 157.073C88.2573 156.381 83.5552 170.229 83.1681 177.647L93.2191 178.198C93.2208 178.166 93.443 174.875 94.9825 171.864Z" fill="black"/>
<path d="M195.804 53.2706C192.06 48.2659 186.602 45.2818 180.64 44.8168C180.523 44.8085 180.434 44.7105 180.434 44.5916L180.445 40.8319C180.51 18.1649 169.44 0.373275 155.249 0.333654L42.6105 6.57926e-05C29.6625 -0.0374692 19.4733 15.99 19.4138 36.4882L19.3912 44.1496C19.3912 44.2684 19.2988 44.3664 19.1818 44.3727C13.3257 44.7418 7.93959 47.6111 4.23254 52.4844C1.38965 56.2212 0.0554443 60.9235 0.0431285 65.6467L0 82.2163C0 82.3456 0.100595 82.4498 0.227858 82.4498L13.4386 82.4853C13.5494 82.4853 13.6438 82.5666 13.6623 82.6793L45.5088 272.613C46.8472 280.12 52.5062 285.881 59.6022 287.447C60.8461 287.723 62.1392 287.866 63.455 287.871L128.509 288C139.037 288.021 148.085 280.405 150.016 269.925L185.652 83.1297C185.673 83.0192 185.767 82.942 185.878 82.942L199.731 82.9775C199.858 82.9775 199.961 82.8732 199.961 82.746L200 66.756C200.012 61.9244 198.678 57.1137 195.804 53.2706ZM29.4778 36.5175C29.523 21.0009 36.4177 10.2075 42.5797 10.2242L155.218 10.5578C162.42 10.5807 170.43 23.0048 170.378 40.8027L170.368 44.4916C170.368 44.6188 170.266 44.723 170.138 44.723L29.6851 44.3518C29.5599 44.3518 29.4573 44.2476 29.4573 44.1183L29.4778 36.5175ZM140.131 268.008C139.086 273.678 134.207 277.784 128.529 277.774L63.4755 277.644C59.5139 277.634 56.1189 274.754 55.423 270.842L23.8906 82.7835C23.8659 82.6417 23.9747 82.5124 24.1164 82.5124L175.165 82.9107C175.309 82.9107 175.416 83.0442 175.389 83.188L140.131 268.008ZM189.922 72.4905C189.922 72.6177 189.819 72.7221 189.692 72.7221L10.3186 72.2487C10.1913 72.2487 10.0907 72.1444 10.0907 72.0151L10.1072 65.4486C10.1133 63.1986 10.6614 60.9381 11.936 59.0989C13.9558 56.1816 17.1066 54.5426 20.5017 54.553L179.026 54.9722C179.814 54.9743 180.59 55.0597 181.342 55.2265C182.955 55.5831 184.464 56.3067 185.771 57.3556C188.557 59.5973 189.944 63.1944 189.936 66.804L189.922 72.4905Z" fill="black"/>
</svg>
