<svg width="467" height="596" viewBox="0 0 467 596" fill="none" xmlns="http://www.w3.org/2000/svg">
<path d="M441.291 149.379C451.823 149.379 460.361 143.167 460.361 135.503C460.361 127.84 451.823 121.627 441.291 121.627C430.758 121.627 422.22 127.84 422.22 135.503C422.22 143.167 430.758 149.379 441.291 149.379Z" fill="#386341"/>
<path opacity="0.2" d="M441.291 149.379C451.823 149.379 460.361 143.167 460.361 135.503C460.361 127.84 451.823 121.627 441.291 121.627C430.758 121.627 422.22 127.84 422.22 135.503C422.22 143.167 430.758 149.379 441.291 149.379Z" fill="black"/>
<path d="M122.999 111.453L116.746 129.052L130.502 138.437H323.071L336.827 131.397L334.325 112.626L319.319 110.278L122.999 111.453Z" fill="#DB732B"/>
<path d="M52.9756 356.665L101.741 387.168L87.9874 493.935L4.20801 475.163L52.9756 356.665Z" fill="#8E3D0E"/>
<path d="M66.7289 326.159L105.492 350.798L107.994 340.238L99.2415 324.986L105.492 273.362L77.983 302.693L66.7289 326.159Z" fill="#8E3D0E"/>
<path d="M214.281 35.19L210.53 16.4185L226.788 5.85907H243.043L251.795 21.1108L249.296 36.3625L235.54 45.7494L224.286 44.5769L214.281 35.19Z" fill="#8E3D0E"/>
<path d="M145.507 98.5463L163.015 71.5603L196.777 50.4415H253.045L283.058 61.0009L311.817 85.6395L319.319 110.278L141.756 109.106L145.507 98.5463Z" fill="#8E3D0E"/>
<path d="M121.75 255.763L130.502 138.437H323.071L350.58 254.59L318.07 252.243L275.553 260.455L215.534 265.15L168.016 263.977L121.75 255.763Z" fill="#386341"/>
<path d="M107.053 343.306L140.506 357.837L186.772 362.529L240.541 364.877L289.309 359.01L349.33 346.105L366.837 324.986L361.834 295.653L350.58 265.15L330.573 251.071L290.558 260.455L225.536 267.497L184.271 268.67L134.253 259.283L115.497 263.977L105.492 283.921L102.993 312.08L99.2415 324.986L107.053 343.306Z" fill="#DB732B"/>
<path d="M416.855 136.092L354.653 265.475L374.34 400.075H386.844L455.618 150.168L435.611 148.996L416.855 136.092Z" fill="#386341"/>
<path d="M80.2195 577.692L104.781 354.923C105.326 349.984 110.337 346.596 115.502 347.672L186.135 362.395C186.561 362.484 186.989 362.544 187.423 362.572L220.963 364.819C221.509 364.855 222.057 364.845 222.603 364.786L297.615 356.71C297.913 356.679 298.209 356.631 298.502 356.571L346.461 346.694C348.323 346.311 350.006 345.373 351.253 344.019C356.198 338.659 365.565 341.205 366.692 348.213L403.961 579.709C404.772 584.751 400.595 589.283 395.16 589.252L129.252 587.794L88.801 586.845C83.6419 586.727 79.6865 582.509 80.2195 577.692Z" fill="#386341"/>
<path d="M104.242 157.208L130.502 154.863L124.249 183.022L91.7388 187.714L61.728 205.313L42.9712 234.644L36.7181 268.669L40.4694 293.308L54.2252 315.599L75.4838 335.546L105.492 350.797L101.741 387.168L61.728 366.049L34.2188 335.546L14.2099 299.173L6.7072 259.282L14.2099 221.74L32.9667 193.581L55.4748 173.635L104.242 157.208Z" fill="#6A5952"/>
<path d="M115.497 258.5L168.016 263.977L204.593 362.86L157.907 357.385L115.497 258.5Z" fill="#8E3D0E"/>
<path d="M215.534 265.15L261.282 262.738L304.633 355.038L252.111 361.295L215.534 265.15Z" fill="#8E3D0E"/>
<path d="M306.301 256.48L343.817 251.786L357.154 275.252L366.325 312.017L358.822 331.571L349.652 337.828L306.301 256.48Z" fill="#8E3D0E"/>
<path d="M141.756 109.106L157.073 74.2236L183.75 55.4496L212.096 49.1925L192.921 82.0456L179.583 106.294L141.756 109.106Z" fill="#DB732B"/>
<path d="M235.438 109.424L235.54 45.7493L256.281 61.7093L281.291 110.989L235.438 109.424Z" fill="#DB732B"/>
<path d="M52.9757 356.665L39.2198 383.648L94.2406 436.445L101.741 387.168L52.9757 356.665Z" fill="#DB732B"/>
<path d="M25.464 425.886L4.20801 475.163L22.9648 481.031L87.9874 493.935L25.464 425.886Z" fill="#DB732B"/>
<g opacity="0.2">
<path d="M181.771 243.445C189.714 243.445 196.152 237.404 196.152 229.952C196.152 222.5 189.714 216.459 181.771 216.459C173.829 216.459 167.391 222.5 167.391 229.952C167.391 237.404 173.829 243.445 181.771 243.445Z" fill="black"/>
<path d="M285.557 238.752C293.499 238.752 299.938 232.711 299.938 225.259C299.938 217.807 293.499 211.766 285.557 211.766C277.615 211.766 271.177 217.807 271.177 225.259C271.177 232.711 277.615 238.752 285.557 238.752Z" fill="black"/>
</g>
<path opacity="0.2" d="M174.998 140.712C174.998 140.712 142.585 482.189 164.578 533.775C189.588 592.442 243.359 590.094 243.359 590.094L79.2351 586.625L105.803 345.651L99.2415 324.984L105.495 273.362L121.75 255.763L130.502 138.437L174.998 140.712Z" fill="black"/>
<path opacity="0.2" d="M178.331 138.757C178.331 138.757 158.322 125.068 176.528 109.742C184.362 103.145 185.293 90.4371 192.921 82.048C213.657 59.2446 224.286 44.5792 224.286 44.5792L196.777 50.4463L163.015 71.5651L145.507 98.5463C140.506 107.345 122.999 111.453 122.999 111.453L116.746 129.052C129.877 139.609 178.331 138.757 178.331 138.757Z" fill="black"/>
<path opacity="0.2" d="M102.33 273.687L84.5447 342.002L105.492 350.798L105.803 345.651L102.993 312.08L102.33 273.687Z" fill="black"/>
<path opacity="0.2" d="M77.983 374.264L52.9756 486.895L87.9875 493.935L101.741 387.168L77.983 374.264Z" fill="black"/>
<path opacity="0.2" d="M366.325 247.874C366.325 247.874 366.21 310.319 410.602 310.319L380.221 418.396L358.822 331.571L366.325 312.015L357.154 275.252L366.325 247.874Z" fill="black"/>
<path d="M129.252 156.036L126.751 183.022L100.491 184.194L64.2297 200.621L45.4729 224.084L35.4685 251.07L36.7181 278.056L46.7225 305.04L71.7324 336.718L105.492 350.797L101.741 387.168L60.4784 363.704L17.9613 317.947L4.20801 262.802L14.2099 219.392L39.2198 183.022L80.4847 161.903L129.252 156.036Z" fill="#386341"/>
<path d="M375.21 567.946C372.104 567.946 369.385 565.814 368.911 562.847L357.861 493.456C357.34 490.19 359.743 487.144 363.224 486.656C366.725 486.182 369.951 488.424 370.471 491.688L381.524 561.079C382.044 564.345 379.642 567.391 376.161 567.879C375.84 567.925 375.523 567.946 375.21 567.946Z" fill="white"/>
<path d="M465.426 142.239C468.647 131.847 460.203 120.654 446.141 116.717C439.773 114.935 433.166 114.963 427.537 116.801C421.279 118.842 416.735 123.02 415.07 128.263C414.891 128.827 414.751 129.399 414.641 129.971L355.186 254.519L335.172 141.545C340.58 138.066 344.135 132.228 344.135 125.623V122.606C344.135 112.501 335.812 104.191 325.261 103.382C320.419 86.9533 309.335 72.0773 293.527 61.0011C280.847 52.1142 265.66 46.1011 249.497 43.3829C255.388 37.8507 258.581 29.7918 257.051 21.1084C255.11 10.1015 245.31 1.43475 233.497 0.173746C217.15 -1.5706 203.244 10.4317 203.244 25.4273C203.244 32.3545 206.218 38.6428 211.022 43.2321C195.18 45.7685 180.206 51.4658 167.625 59.9124C151.072 71.0293 139.349 86.36 134.33 103.313H132.657C121.301 103.313 112.092 111.951 112.092 122.608V125.626C112.092 133.912 117.69 140.995 125.524 143.723L124.894 148.929C114.591 149.264 92.3202 151.171 69.2307 160.723C40.3496 172.671 4.96543 199.173 0.398004 257.577C-2.73365 297.622 12.662 332.943 44.9425 359.943C41.5584 367.602 37.4806 376.125 33.1758 385.118C21.8427 408.79 9.00751 435.598 1.51245 461.548C1.02791 463.228 0.686178 464.951 0.627523 466.69C0.33935 475.395 5.46272 482.449 12.6569 485.869L5.62338 526.357C5.06998 529.542 7.31928 532.94 10.7111 533.464C11.0553 533.517 11.3996 533.543 11.7362 533.543C14.7455 533.543 17.4002 531.497 17.9001 528.621L24.7908 488.948L38.5032 491.583L30.2431 530.583C29.6055 533.593 31.3499 536.756 34.4815 537.639C35.0987 537.814 35.7133 537.895 36.3177 537.895C39.2402 537.895 41.8516 535.964 42.4433 533.172L50.7544 493.937L63.332 496.354L55.2402 534.555C54.6027 537.568 56.3547 540.726 59.4914 541.607C60.1035 541.779 60.7155 541.86 61.3174 541.86C64.2399 541.86 66.8513 539.929 67.443 537.137L75.5832 498.708L82.3489 500.008L73.7369 571.086C72.1379 584.28 83.137 595.839 97.2881 595.839H384.827C400.977 595.839 413.261 582.229 410.602 567.281L385.01 423.512L465.426 142.239ZM350.562 275.276L359.123 308.553C361.365 317.27 358.593 326.157 352.492 332.409L317.111 259.599C318.23 259.319 319.353 259.036 320.482 258.744C326.929 257.084 333.636 257.916 339.367 261.087C345.041 264.229 349.017 269.268 350.562 275.276ZM223.177 272.804C233.046 272.577 243.474 271.945 254.47 270.802L293.057 351.731C282.877 353.796 272.161 355.598 260.978 356.954L223.177 272.804ZM248.01 358.297C236.384 359.297 224.316 359.771 211.887 359.536L172.726 270.447C183.908 271.771 196.2 272.685 209.635 272.871L248.01 358.297ZM267.428 269.246C279.263 267.636 291.711 265.435 304.783 262.518L342.011 339.126C341.501 339.312 340.983 339.487 340.458 339.645C329.882 342.822 318.162 346.084 305.469 349.027L267.428 269.246ZM312.143 103.311H287.026C284.871 97.0629 276.404 74.6711 260.708 58.1967C285.208 65.9422 304.651 82.5602 312.143 103.311ZM273.78 103.311H241.418L239.439 56.3327C258.117 67.1697 269.603 92.5669 273.78 103.311ZM230.335 11.7357C238.378 11.7357 244.925 17.8757 244.925 25.425C244.925 32.9719 238.381 39.1142 230.335 39.1142C222.292 39.1142 215.745 32.9742 215.745 25.425C215.745 17.8757 222.292 11.7357 230.335 11.7357ZM226.844 54.3635L228.907 103.311H187.147C191.404 92.4831 202.864 69.1701 226.844 54.3635ZM204.124 56.6318C184.923 74.4342 176.505 95.5387 173.899 103.311H147.4C155.43 80.8804 177.12 63.4872 204.124 56.6318ZM124.598 125.623V122.606C124.598 118.435 128.214 115.045 132.657 115.045H323.568C328.01 115.045 331.627 118.435 331.627 122.606V125.623C331.627 129.792 328.01 133.185 323.568 133.185H132.657C128.212 133.185 124.598 129.792 124.598 125.623ZM136.579 156.368C136.714 155.923 136.801 155.459 136.821 154.978C136.829 154.792 136.824 154.607 136.814 154.423L137.966 144.916H323.089L341.527 248.994C333.868 245.89 325.379 245.316 317.17 247.431C233.331 269.033 174.455 260.661 137.464 252.482C133.33 251.568 129.071 251.487 124.968 252.193L136.579 156.368ZM134.595 263.901C141.715 265.475 149.616 267.057 158.317 268.445L198.116 358.981C186.688 358.278 174.99 356.94 163.078 354.834L123.287 264.844C126.819 263.391 130.731 263.047 134.595 263.901ZM101.419 342.653L101.302 343.614C95.457 341.215 84.3942 336.008 73.464 327.288C82.6626 310.613 91.1829 297.867 98.3974 288.329L94.2686 314.53C92.6594 324.759 95.4443 334.74 101.419 342.653ZM64.0894 318.792C47.9288 302.09 40.6734 281.808 42.507 258.366C44.8456 228.461 58.8794 207.692 84.2234 196.634C99.1905 190.105 114.002 188.932 120.072 188.741L111.98 255.512C106.612 259.855 87.5565 277.059 64.0894 318.792ZM106.642 316.243L112.696 277.813C112.906 276.485 113.288 275.216 113.801 274.006L148.208 351.822C140.874 350.144 133.473 348.168 126.011 345.852C112.735 341.727 104.589 329.274 106.642 316.243ZM12.8685 258.431C16.1583 216.358 36.6875 187.149 73.8874 171.615C93.7611 163.315 113.418 161.245 123.458 160.75L121.492 176.968C115.716 177.006 97.9154 177.834 79.4009 185.797C58.7417 194.684 33.4053 214.341 30.0289 257.507C27.0273 295.904 46.6843 320.778 63.7044 334.883C79.026 347.579 94.7378 353.901 99.8255 355.744L97.2167 377.264C88.0385 373.565 71.4595 365.836 55.4799 353.009C24.2628 327.942 9.92303 296.12 12.8685 258.431ZM95.7528 389.413L91.6955 422.902L47.9721 382.832C50.479 377.573 52.8583 372.515 55.026 367.72C71.9109 379.727 87.9874 386.522 95.7528 389.413ZM20.9501 476.228L20.8354 476.207C18.2112 475.75 15.9798 474.331 14.5542 472.211C13.1312 470.093 12.7283 467.597 13.4168 465.185C16.1659 455.566 19.7209 445.751 23.684 435.986L71.5514 485.952L20.9501 476.228ZM28.8379 423.814C33.2753 413.69 37.9804 403.736 42.5198 394.237L89.9078 437.663L84.5396 481.957L28.8379 423.814ZM383.891 584.103H99.8459C91.7975 584.103 85.5444 577.53 86.4522 570.026L112.773 352.822C115.624 354.538 118.738 355.949 122.081 356.99C152.589 366.468 184.834 371.232 218.288 371.232C228.746 371.232 239.322 370.766 250 369.832C289.191 366.408 322.573 357.342 344.273 350.822C349.557 349.235 354.262 346.689 358.251 343.461L397.881 568.628C399.309 576.733 392.646 584.103 383.891 584.103ZM380.083 395.493L368.646 330.509C372.343 322.998 373.476 314.343 371.277 305.799L362.716 272.522C362.446 271.474 362.122 270.45 361.757 269.442L420.366 146.668C423.796 150.291 428.514 153.205 434.046 154.756C436.912 155.557 439.85 155.957 442.747 155.957C444.8 155.957 446.827 155.749 448.799 155.352L380.083 395.493ZM453.412 138.994C452.869 140.698 451.01 142.287 448.436 143.244C445.223 144.438 441.281 144.534 437.624 143.512C430.2 141.435 425.844 135.41 427.053 131.615C427.741 129.447 430.225 128.346 431.643 127.885C433.166 127.387 434.89 127.14 436.703 127.14C438.608 127.14 440.61 127.416 442.566 127.964C450.334 130.134 454.516 135.52 453.412 138.994Z" fill="black"/>
<path d="M260.718 209.448C261.162 209.467 261.601 209.477 262.029 209.477C279.666 209.477 285.205 194.132 285.652 185.821L273.163 185.23C273.161 185.264 272.895 188.865 271.123 192.229C269.017 196.23 265.977 197.927 261.274 197.728C250.13 197.261 248.556 187.819 248.357 185.977L235.897 186.96C236.565 194.409 242.612 208.692 260.718 209.448Z" fill="black"/>
<path d="M200.918 210.726C201.362 210.745 201.798 210.754 202.229 210.754C219.866 210.754 225.405 195.409 225.852 187.097L213.363 186.506C213.361 186.539 213.096 190.14 211.323 193.505C209.217 197.503 206.177 199.197 201.474 199.003C190.33 198.537 188.756 189.095 188.557 187.252L176.097 188.236C176.765 195.687 182.812 209.97 200.918 210.726Z" fill="black"/>
<path d="M217.571 221.247L212.624 224.836L217.589 221.271L207.659 228.401C208.049 228.88 217.4 240.152 232 241.141C232.696 241.188 233.393 241.21 234.084 241.21C242.744 241.21 251.134 237.539 259.05 230.28L250.311 221.888C244.461 227.253 238.631 229.789 232.982 229.44C224.031 228.88 217.635 221.321 217.571 221.247Z" fill="black"/>
</svg>
