<svg width="147" height="164" viewBox="0 0 147 164" fill="none" xmlns="http://www.w3.org/2000/svg">
<g opacity="0.2">
<path d="M77.9088 139.487C77.3976 143.127 74.0029 145.666 70.3283 145.16C66.6536 144.654 64.0882 141.292 64.5994 137.654C65.1106 134.014 68.5052 131.475 72.1799 131.981C75.8558 132.487 78.4212 135.848 77.9088 139.487Z" fill="white"/>
<path d="M114.174 137.475C113.663 141.115 110.268 143.654 106.594 143.148C102.918 142.642 100.354 139.281 100.865 135.642C101.376 132.002 104.771 129.463 108.445 129.969C112.121 130.475 114.685 133.837 114.174 137.475Z" fill="white"/>
</g>
<path opacity="0.2" d="M52.3469 96.8299C52.3469 96.8299 44.3338 153.844 95.2968 160.575L76.9556 160.968L59.757 157.429L37.7077 138.036L29.8841 122.355L25.1657 97.1721L27.2747 86.3644L38.6216 93.7693L52.3469 96.8299Z" fill="white"/>
<path opacity="0.2" d="M81.6228 81.5895C81.6228 81.5895 99.8508 84.1014 99.4147 89.2988C98.9798 94.4961 80.0262 97.1402 80.0262 97.1402L112.159 95.1439L122.641 91.9157L121.213 85.2943L102.358 80.9441L81.6228 81.5895Z" fill="white"/>
<path opacity="0.2" d="M94.1744 81.0786C94.1744 81.0786 115.453 80.1182 109.735 64.1427C108.157 59.7359 128.423 66.8458 128.423 66.8458L141.595 73.8531L139.42 81.8609L131.324 87.2352L123.686 87.4806L107.069 82.5948L94.1744 81.0786Z" fill="white"/>
<path d="M96.9601 131.72C96.9601 131.72 96.3417 138.595 89.2784 138.909C82.4974 139.21 80.8316 132.314 80.8316 132.314L96.9601 131.72Z" fill="white"/>
<path d="M77.431 121.86C76.641 127.481 71.3982 131.404 65.7218 130.622C60.0453 129.839 56.0835 124.648 56.8735 119.027C57.6635 113.406 62.9062 109.483 68.5827 110.265C74.2591 111.046 78.221 116.238 77.431 121.86Z" fill="white"/>
<path d="M117.297 118.691C116.507 124.312 111.264 128.235 105.588 127.452C99.9104 126.67 95.9497 121.479 96.7397 115.858C97.5297 110.237 102.772 106.314 108.449 107.096C114.125 107.878 118.087 113.07 117.297 118.691Z" fill="white"/>
<path d="M145.229 74.4772L145.16 74.1327L145.01 73.8153C144.31 72.3381 136.955 59.9058 88.3525 60.2031C87.6078 58.8887 86.6665 57.6003 85.4869 56.3603C81.9731 52.6673 81.1092 48.5967 82.8465 43.9149C84.2501 40.1311 86.8822 37.4233 86.9084 37.3961L82.7368 33.3444C82.5974 33.4848 79.3064 36.8321 77.4393 41.7157C74.8299 48.54 76.1417 54.9763 81.2355 60.327L81.2379 60.3294C77.2749 60.4473 73.5037 60.6479 69.9267 60.9287C69.7563 60.7329 69.5847 60.5382 69.4155 60.3459C66.7632 57.3325 64.6685 54.9515 64.9807 49.1359C65.3929 41.4549 68.2014 38.3931 71.1754 35.1508C73.848 32.2377 76.8757 28.9352 77.7503 22.7161C79.6091 9.49209 69.4453 0.3811 69.0116 0L65.132 4.32542C65.2142 4.39857 73.3964 11.7268 71.9642 21.9185C71.3387 26.369 69.3583 28.5282 66.8514 31.262C63.4853 34.9314 59.6712 39.0916 59.1481 48.8291C58.8169 54.9904 60.7305 58.7637 62.8967 61.6154C48.8986 63.2708 38.3917 66.3703 31.5511 70.8833C24.16 75.7609 23.4642 80.8132 23.4082 82.039C23.3402 82.793 22.9732 87.3001 23.208 93.8637C19.6822 94.3617 9.63049 96.3804 3.95523 103.672C0.447366 108.178 -0.734633 113.775 0.439025 120.308C1.56502 126.573 4.57721 131.229 9.39219 134.148C12.2113 135.857 15.3677 136.777 18.4848 137.206C24.8356 138.082 31.0173 136.921 33.834 136.25C39.6702 146.612 47.7642 154.271 57.8482 158.826C62.7084 161.022 68.0667 162.525 73.8623 163.323C77.251 163.79 80.7911 164.017 84.4658 163.999C93.1854 163.958 101.148 162.78 108.132 160.498C129.127 153.637 142.189 136.47 145.906 110.853C148.657 91.8886 145.37 75.1793 145.229 74.4772ZM90.4186 65.981C127.207 66.0258 137.206 73.6549 139.302 75.8235C138.821 77.6523 136.698 82.4685 127.425 86.9131C124.595 83.9988 115.715 78.6304 88.76 78.5785C90.2352 75.0341 91.2134 70.5447 90.4186 65.981ZM81.9719 66.0966C82.8214 66.073 83.6555 66.0541 84.4801 66.0388C85.8372 71.268 83.5137 76.3686 82.215 78.6646C81.8051 78.6752 81.3976 78.6858 80.9805 78.7C78.6034 78.7767 76.3538 78.9147 74.2198 79.1023C75.5055 73.3469 74.9776 69.4451 73.6812 66.4659C76.2907 66.3031 79.0479 66.1768 81.9719 66.0966ZM81.1712 84.4814C106.515 83.6673 117.034 87.2116 121.099 89.4593C112.871 92.2509 100.954 94.5799 83.6901 95.4365C67.2303 96.2542 55.6534 94.8832 47.5402 92.7181C52.4863 89.5112 62.5952 85.0784 81.1712 84.4814ZM67.2863 66.9626C69.1165 69.674 69.9565 73.0224 68.0143 79.8327C52.2492 82.1913 44.2862 87.4547 40.87 90.4834C32.8629 87.1526 30.1022 83.2048 29.3444 81.8279C29.9973 79.6132 34.692 70.0633 67.2863 66.9626ZM25.516 113.328C25.9914 115.606 26.5395 117.812 27.1496 119.952C25.0739 120.465 22.1249 120.871 20.3078 119.934C19.7788 119.662 19.0329 119.128 18.6694 117.658C18.2774 116.075 18.4347 114.799 19.1532 113.76C20.415 111.934 23.1925 110.95 24.9726 110.534C25.1395 111.457 25.3194 112.388 25.516 113.328ZM12.4413 129.214C9.0669 127.168 7.02223 123.925 6.19054 119.296C5.30643 114.376 6.0833 110.428 8.56645 107.225C12.6784 101.922 20.4079 100.176 23.5523 99.6699C23.6894 101.311 23.8657 103.025 24.0921 104.799C21.7615 105.283 16.9739 106.697 14.3513 110.466C12.6725 112.877 12.2042 115.841 12.9954 119.036C13.6757 121.78 15.2772 123.868 17.6269 125.074C18.7386 125.644 19.9384 125.978 21.1514 126.144C24.023 126.539 26.9601 126.004 28.9309 125.481C29.6089 127.356 30.3441 129.167 31.134 130.915C26.9256 131.768 18.4109 132.834 12.4413 129.214ZM140.122 110.03C136.693 133.66 125.314 148.792 106.301 155.005C99.8997 157.097 92.5443 158.176 84.4384 158.214C75.3303 158.257 67.1993 156.692 60.2729 153.563C45.3716 146.832 35.613 132.947 31.2675 112.296C29.4719 103.764 29.0226 95.7728 28.9881 90.2144C30.3738 91.3801 32.0968 92.5907 34.2368 93.767C39.974 96.9232 47.2864 99.1142 56.1097 100.329C64.1609 101.439 73.4691 101.737 83.9844 101.214C109.139 99.9661 127.001 95.4802 137.074 87.883C138.516 86.7951 139.702 85.712 140.682 84.6595C141.246 91.1052 141.532 100.314 140.122 110.03Z" fill="white"/>
</svg>
