<svg width="333" height="480" viewBox="0 0 333 480" fill="none" xmlns="http://www.w3.org/2000/svg">
<path d="M10.3914 219.475L8.24341 450.127L45.691 473.197L139.658 472.477L222.927 470.867L245.456 457.071L247.975 413.585L249.728 367.187L250.282 236.619L223.939 255.795L195.038 258.612L131.122 260.884L64.0181 257.667L29.8929 253.873L10.3914 219.475Z" fill="#CECECE"/>
<path d="M16.998 198.18L48.3065 177.993L157.043 180.405L222.49 183.961L248.231 215.553L250.282 236.622C228.958 241.733 207.621 226.892 207.621 226.892L163.947 226.577L93.1507 222.576L39.0425 228.993L26.4456 240.767L10.1418 231.807L7.70972 209.281" fill="#CECECE"/>
<path d="M26.4453 240.764L39.0456 228.99L107.542 224.248L207.624 226.888L230.805 242.121L223.938 255.795L167.024 258.176L64.0176 257.667L29.8925 253.873L26.4453 240.764Z" fill="#7C5F47"/>
<path d="M259.459 251.632L298.168 252.959L320.077 269.984L325.6 344.062L322.946 373.765L300.922 382.852L265.02 385.56L246.048 386.353L247.05 356.989L275.569 352.717C288.741 343.129 291.97 315.614 291.97 315.614L288.003 287.259L265.844 282.563C252.032 283.072 259.459 251.632 259.459 251.632Z" fill="#7C5F47"/>
<g opacity="0.3">
<path d="M90.8812 356.559C93.3133 365.811 86.7619 375.048 76.2507 377.189C65.7395 379.33 55.2455 373.563 52.8134 364.311C50.3814 355.059 56.9328 345.822 67.444 343.681C77.9587 341.544 88.4526 347.307 90.8812 356.559Z" fill="#9C3572"/>
<path d="M222.407 352.796C224.839 362.048 218.288 371.285 207.777 373.426C197.265 375.567 186.772 369.8 184.34 360.548C181.908 351.296 188.459 342.059 198.97 339.918C209.485 337.781 219.975 343.544 222.407 352.796Z" fill="#9C3572"/>
</g>
<path opacity="0.2" d="M198.288 261.022C198.288 261.022 203.879 383.962 198 409.185C190.791 440.116 173.718 455.467 160.279 466.665C149.258 475.847 206.855 473.038 206.855 473.038L236.116 466.055L251.055 445.187L248.609 402.71L252.129 329.861L249.139 232.246L231.453 251.196L198.288 261.022Z" fill="black"/>
<path opacity="0.4" d="M155.445 227.703C155.445 227.703 107.781 227.691 107.916 241.474C108.051 255.261 160.555 255.993 160.555 255.993L68.4765 261.363L39.8217 251.852L34.4622 231.457L56.1013 220.911L155.445 227.703Z" fill="black"/>
<path opacity="0.2" d="M117.839 226.151C117.839 226.151 100.534 214.163 87.0154 179.316C83.1906 169.454 39.656 179.316 39.656 179.316L18.2177 198.007L10.478 218.682L25.5485 243.581L37.8302 243.127L56.1018 220.911L117.839 226.151Z" fill="black"/>
<path d="M254.644 286.378L255.001 247.936L297.402 250.043L320.843 272.896L324.82 321.197L323.192 361.432L310.089 377.915L291.378 386.329L259.674 385.112C250.06 381.699 248.324 355.193 248.324 355.193L282.384 352.095L292.5 340.827L289.302 315.388L286.295 290.678L254.644 286.378Z" fill="#CECECE"/>
<path d="M42.6632 447.053C42.0015 447.187 41.3086 447.254 40.5984 447.245C35.9075 447.175 32.1694 443.772 32.2491 439.643L33.1047 395.184C33.1844 391.055 37.0577 387.768 41.7417 387.835C46.4326 387.905 50.1708 391.308 50.0911 395.437L49.2353 439.896C49.1661 443.4 46.3737 446.3 42.6632 447.053Z" fill="white"/>
<path d="M123.385 310.359C127.14 324.652 117.024 338.918 100.789 342.224C84.5515 345.529 68.3446 336.625 64.5891 322.332C60.8336 308.042 70.9499 293.773 87.1879 290.467C103.419 287.162 119.626 296.066 123.385 310.359Z" fill="black"/>
<path d="M96.6559 314.906C98.2773 321.075 93.9121 327.232 86.9035 328.659C79.8948 330.087 72.9 326.244 71.2787 320.075C69.6573 313.906 74.026 307.749 81.0312 306.322C88.0364 304.895 95.0345 308.737 96.6559 314.906Z" fill="white"/>
<path d="M117.942 321.829C118.964 325.714 116.213 329.596 111.796 330.492C107.382 331.392 102.975 328.971 101.953 325.082C100.931 321.197 103.682 317.318 108.099 316.419C112.513 315.519 116.92 317.94 117.942 321.829Z" fill="white"/>
<path d="M186.954 338.363L161.975 325.616C157.399 323.067 154.707 318.703 154.776 313.933C154.845 309.167 157.662 304.861 162.312 302.415L162.54 302.3L188.534 289.589L196.787 302.659L173.332 314.129L195.473 325.421L186.954 338.363Z" fill="black"/>
<path d="M146.188 373.941C142.962 374.597 139.681 374.89 136.356 374.817C116.476 374.365 103.034 360.527 102.469 359.938L115.444 350.286C115.534 350.381 124.722 359.651 136.906 359.871C144.594 360.011 152.337 356.453 159.918 349.302L172.338 359.502C164.141 367.236 155.376 372.069 146.188 373.941Z" fill="black"/>
<path d="M286.988 244.021L259.882 242.142L260.041 222.714C260.274 194.134 234.047 170.714 201.578 170.509L157.236 170.229C159.381 165.313 162.357 161.519 165.607 157.393C173.014 147.992 181.408 137.334 179.891 113.136C178.522 91.3138 166.234 80.0338 155.39 70.0832C145.1 60.6389 136.976 53.1829 138.379 37.3103C139.665 22.7733 149.213 17.7782 154.79 16.0949C163.31 13.5211 173.079 15.4118 178.536 20.6905C185.299 27.2286 188.188 33.3825 187.128 38.9814C185.24 48.9624 171.815 55.5554 171.708 55.6073L179.762 68.775C180.608 68.3725 200.525 58.7574 203.861 41.5613C205.878 31.1777 201.582 20.7698 191.098 10.6302C181.058 0.920579 164.255 -2.56195 149.275 1.95436C133.311 6.77257 122.907 19.5591 121.438 36.1545C119.446 58.7025 132.029 70.2479 143.126 80.4363C153.204 89.6824 161.903 97.669 162.925 113.962C164.12 133.034 158.338 140.374 151.641 148.876C147.2 154.515 142.315 160.73 139.429 170.119L108.301 169.921C110.632 163.517 114.305 157.037 119.328 150.505C132.275 133.671 135.971 118.5 130.317 105.415C121.694 85.4497 94.4947 79.1524 93.341 78.8932L89.1525 93.3845C89.35 93.4271 109.004 98.1478 114.44 110.727C118.012 118.994 114.921 129.558 105.259 142.122C97.6889 151.965 93.1678 161.263 90.7254 169.808L58.3532 169.604C43.3693 169.509 29.2377 174.556 18.5602 183.817C7.88612 193.079 1.9515 205.444 1.84064 218.637L0.000981582 444.385C-0.0717725 453.527 3.90202 462.148 11.1913 468.659C18.4806 475.17 28.2192 478.789 38.6022 478.856L222.913 480C222.913 480 229.876 479.012 235.295 476.963L235.302 476.969C235.35 476.951 235.395 476.926 235.444 476.908C236.213 476.612 236.944 476.295 237.623 475.956C249.773 470.226 258.101 458.983 258.209 446.019L258.649 391.863L289.839 392.254H290.013C293.065 392.235 296.186 391.918 299.291 391.287C315.269 388.033 330.682 376.494 332.948 355.428L333 354.937L330.187 288.659C330.287 262.287 314.105 245.603 286.988 244.021ZM153.983 185.162L201.454 185.461C222.095 185.592 239.182 198.912 242.47 216.252C242.425 216.563 242.39 216.874 242.387 217.194C242.335 223.772 240.453 229.789 237.172 234.872C231.245 225.208 219.684 218.53 206.481 218.374L170.225 217.944C167.543 216.465 152.927 207.329 153.983 185.162ZM277.388 290.684C279.169 290.757 280.579 292.044 280.596 293.615L281.178 343.748C281.192 344.877 280.16 345.816 278.878 345.846L259.033 346.27L259.494 289.946L277.388 290.684ZM105.328 184.854L136.993 185.055C136.394 199.687 141.068 210.321 146.594 217.667L117.395 217.319C114.585 214.071 110.688 208.741 108.093 201.745C106.035 196.207 105.134 190.569 105.328 184.854ZM206.252 233.329C215.121 233.436 222.552 239.205 224.094 246.668C218.506 249.583 211.927 251.211 204.762 251.166L61.5406 250.26C54.2444 250.214 47.2496 248.531 41.0863 245.426C42.4167 237.543 50.2845 231.478 59.5312 231.588L206.252 233.329ZM19.946 213.114C19.9494 212.568 19.8837 212.037 19.7624 211.522C21.3699 205.091 25.0388 199.196 30.4919 194.466C37.9336 188.01 47.7865 184.491 58.2354 184.555L88.3626 184.744C88.1166 193.167 89.7518 200.48 91.9414 206.384C93.4242 210.379 95.2361 213.953 97.1207 217.072L59.7598 216.627C45.6559 216.459 33.215 223.766 27.3912 234.363C22.4959 228.169 19.8801 220.817 19.946 213.114ZM241.233 445.91C241.15 456.397 231.511 464.881 219.649 465.027L38.7304 463.905C32.8823 463.868 27.4016 461.828 23.2961 458.163C19.1907 454.497 16.9527 449.642 16.9943 444.495L18.5914 248.54C19.0244 248.952 19.454 249.369 19.9044 249.772C30.9457 259.631 45.6905 265.117 61.4193 265.215L204.641 266.12C209.055 266.148 213.337 265.721 217.428 264.888C227.202 262.897 235.901 258.585 242.809 252.596L241.233 445.91ZM313.207 288.742L315.993 354.486C313.97 371.176 300.791 377.207 289.999 377.299L258.784 376.909L258.912 361.234L279.29 360.798C280.613 360.771 281.902 360.624 283.15 360.371C291.8 358.609 298.262 351.695 298.168 343.599L297.586 293.465C297.475 283.975 288.953 276.196 278.185 275.751L259.619 274.985L259.764 257.136L285.765 258.936C308.586 260.268 313.284 275.879 313.207 288.742Z" fill="black"/>
</svg>
